# xmcd CD database file
#
# Track frame offsets:
#	182
#	16912
#	37265
#	55297
#	75220
#	92305
#	112947
#	132245
#	148987
#	169195
#	190770
#	208370
#	228950
#	244697
#
# Disc length: 3516 seconds
#
# Revision: 0
# Processed by: cddbd v1.5.2PL0 Copyright (c) Steve Scherf et al.
# Submitted via: CDex 1.51
#
DISCID=b70dba0e
DTITLE=Cocoband - Grandes exitos vol. 1
DYEAR=1994
DGENRE=Merengue
TTITLE0=La Flaca
TTITLE1=El Cacu
TTITLE2=Ya viene el lunes
TTITLE3=La peliona
TTITLE4=La faldita
TTITLE5=La manito
TTITLE6=A mi que me importa
TTITLE7=Pa los coquitos
TTITLE8=No me queria nada
TTITLE9=Le negra pola
TTITLE10=Dos personas
TTITLE11=Penas de amores
TTITLE12=El mujeron
TTITLE13=El domingo
EXTD=YEAR: 1994
EXTT0=
EXTT1=
EXTT2=
EXTT3=
EXTT4=
EXTT5=
EXTT6=
EXTT7=
EXTT8=
EXTT9=
EXTT10=
EXTT11=
EXTT12=
EXTT13=
PLAYORDER=
